<svg width="578" height="250" viewBox="0 0 578 250" fill="none" xmlns="http://www.w3.org/2000/svg">
<path d="M51.1474 12.0426C55.3872 12.0426 59.672 12.4035 64.0019 13.1251C68.4221 13.7566 71.9402 14.6135 74.5562 15.696C75.368 15.9667 75.8642 16.3275 76.0446 16.7785C76.3152 17.1394 76.4956 17.8159 76.5858 18.8082L78.3449 37.6164C78.3449 37.887 78.1194 38.0674 77.6683 38.1576C77.2173 38.2478 76.9016 38.1125 76.7212 37.7517C74.1954 30.3547 70.5871 24.7167 65.8963 20.8378C61.2055 16.8687 55.5676 14.8842 48.9825 14.8842C42.8484 14.8842 37.3457 16.553 32.4746 19.8907C27.6936 23.1381 23.9049 27.8289 21.1085 33.963C18.4022 40.0971 17.0491 47.2685 17.0491 55.4774C17.0491 63.7764 18.4474 71.0832 21.2438 77.3977C24.1304 83.622 28.0544 88.4481 33.0158 91.8759C38.0674 95.2136 43.8407 96.8824 50.3356 96.8824C56.5599 96.8824 61.7919 95.2136 66.0316 91.8759C70.2713 88.4481 74.2856 82.8552 78.0743 75.0974C78.1645 74.8268 78.4351 74.7366 78.8861 74.8268C79.3372 74.917 79.5627 75.0974 79.5627 75.368L77.533 92.1466C77.3526 93.2291 77.1722 93.9507 76.9918 94.3115C76.8114 94.5822 76.3152 94.8979 75.5034 95.2587C67.2043 98.2355 58.815 99.724 50.3356 99.724C40.6834 99.724 32.0235 97.9198 24.3559 94.3115C16.7785 90.613 10.8249 85.4712 6.49491 78.8861C2.16497 72.301 0 64.8138 0 56.4245C0 47.8549 2.21007 40.2324 6.63022 33.557C11.1406 26.7915 17.2747 21.5144 25.0325 17.7257C32.8805 13.937 41.5855 12.0426 51.1474 12.0426Z" fill="white"/>
<path d="M117.54 99.8593C111.947 99.8593 107.03 98.5964 102.791 96.0706C98.6411 93.4546 95.4388 89.9816 93.1836 85.6517C90.9284 81.2315 89.8008 76.4505 89.8008 71.3087C89.8008 65.4453 91.2892 60.4839 94.2661 56.4245C97.2429 52.275 101.032 49.208 105.632 47.2234C110.233 45.1487 114.969 44.1113 119.84 44.1113C125.433 44.1113 130.304 45.4193 134.453 48.0353C138.603 50.6513 141.76 54.1243 143.925 58.4542C146.18 62.6939 147.308 67.2494 147.308 72.1206C147.308 77.533 145.955 82.3591 143.249 86.5988C140.542 90.7483 136.889 93.9958 132.288 96.3412C127.778 98.6866 122.862 99.8593 117.54 99.8593ZM121.599 97.0177C125.117 97.0177 127.778 95.3038 129.582 91.8759C131.476 88.3579 132.424 83.3514 132.424 76.8565C132.424 70.542 131.612 65.1295 129.988 60.6192C128.364 56.1088 126.244 52.7261 123.628 50.4709C121.012 48.1255 118.216 46.9528 115.239 46.9528C108.023 46.9528 104.414 53.4026 104.414 66.3022C104.414 72.3461 105.181 77.7134 106.715 82.4042C108.248 87.0048 110.323 90.613 112.939 93.229C115.555 95.7548 118.442 97.0177 121.599 97.0177Z" fill="white"/>
<path d="M220.546 96.4765C220.816 96.4765 220.952 96.7471 220.952 97.2884C220.952 97.8296 220.816 98.1002 220.546 98.1002C218.2 98.1002 216.351 98.0551 214.998 97.9649L206.879 97.8296L199.031 97.9649C197.588 98.0551 195.694 98.1002 193.348 98.1002C193.078 98.1002 192.942 97.8296 192.942 97.2884C192.942 96.7471 193.078 96.4765 193.348 96.4765C196.145 96.4765 198.039 95.8451 199.031 94.5822C200.024 93.2291 200.52 90.7484 200.52 87.1401V67.6553C200.52 62.7841 199.618 59.1759 197.814 56.8305C196.1 54.4851 193.348 53.3124 189.56 53.3124C187.395 53.3124 185.14 53.7634 182.794 54.6655C180.539 55.5676 178.554 56.7854 176.84 58.3189V87.1401C176.84 90.7484 177.337 93.2291 178.329 94.5822C179.411 95.8451 181.351 96.4765 184.147 96.4765C184.418 96.4765 184.553 96.7471 184.553 97.2884C184.553 97.8296 184.418 98.1002 184.147 98.1002C181.802 98.1002 179.953 98.0551 178.6 97.9649L170.481 97.8296L162.498 97.9649C161.144 98.0551 159.295 98.1002 156.95 98.1002C156.679 98.1002 156.544 97.8296 156.544 97.2884C156.544 96.7471 156.679 96.4765 156.95 96.4765C159.746 96.4765 161.641 95.8451 162.633 94.5822C163.625 93.2291 164.121 90.7484 164.121 87.1401V61.7017C164.121 58.9052 163.76 56.8756 163.039 55.6127C162.407 54.2596 161.37 53.583 159.927 53.583C158.393 53.583 156.228 54.2145 153.432 55.4774H153.161C152.89 55.4774 152.665 55.2519 152.485 54.8008C152.394 54.3498 152.439 54.0792 152.62 53.989L171.428 44.7878C171.969 44.6074 172.285 44.5172 172.375 44.5172C173.367 44.5172 174.315 45.5095 175.217 47.494C176.119 49.3884 176.66 52.0044 176.84 55.3421C183.065 47.9451 189.92 44.2466 197.408 44.2466C202.279 44.2466 206.113 45.8252 208.909 48.9825C211.796 52.0495 213.239 56.1088 213.239 61.1604V87.1401C213.239 90.7484 213.735 93.2291 214.727 94.5822C215.81 95.8451 217.749 96.4765 220.546 96.4765Z" fill="white"/>
<path d="M291.769 96.4765C292.04 96.4765 292.175 96.7471 292.175 97.2884C292.175 97.8296 292.04 98.1002 291.769 98.1002C289.424 98.1002 287.574 98.0551 286.221 97.9649L278.103 97.8296L270.255 97.9649C268.811 98.0551 266.917 98.1002 264.571 98.1002C264.301 98.1002 264.166 97.8296 264.166 97.2884C264.166 96.7471 264.301 96.4765 264.571 96.4765C267.368 96.4765 269.262 95.8451 270.255 94.5822C271.247 93.2291 271.743 90.7484 271.743 87.1401V67.6553C271.743 62.7841 270.841 59.1759 269.037 56.8305C267.323 54.4851 264.571 53.3124 260.783 53.3124C258.618 53.3124 256.363 53.7634 254.017 54.6655C251.762 55.5676 249.778 56.7854 248.064 58.3189V87.1401C248.064 90.7484 248.56 93.2291 249.552 94.5822C250.634 95.8451 252.574 96.4765 255.37 96.4765C255.641 96.4765 255.776 96.7471 255.776 97.2884C255.776 97.8296 255.641 98.1002 255.37 98.1002C253.025 98.1002 251.176 98.0551 249.823 97.9649L241.704 97.8296L233.721 97.9649C232.368 98.0551 230.518 98.1002 228.173 98.1002C227.902 98.1002 227.767 97.8296 227.767 97.2884C227.767 96.7471 227.902 96.4765 228.173 96.4765C230.969 96.4765 232.864 95.8451 233.856 94.5822C234.848 93.2291 235.344 90.7484 235.344 87.1401V61.7017C235.344 58.9052 234.984 56.8756 234.262 55.6127C233.63 54.2596 232.593 53.583 231.15 53.583C229.616 53.583 227.451 54.2145 224.655 55.4774H224.384C224.114 55.4774 223.888 55.2519 223.708 54.8008C223.617 54.3498 223.663 54.0792 223.843 53.989L242.651 44.7878C243.192 44.6074 243.508 44.5172 243.598 44.5172C244.591 44.5172 245.538 45.5095 246.44 47.494C247.342 49.3884 247.883 52.0044 248.064 55.3421C254.288 47.9451 261.144 44.2466 268.631 44.2466C273.502 44.2466 277.336 45.8252 280.132 48.9825C283.019 52.0495 284.462 56.1088 284.462 61.1604V87.1401C284.462 90.7484 284.958 93.2291 285.951 94.5822C287.033 95.8451 288.972 96.4765 291.769 96.4765Z" fill="white"/>
<path d="M346.619 89.1697C346.8 89.1697 346.98 89.3501 347.161 89.711C347.431 90.0718 347.476 90.3424 347.296 90.5228C343.958 93.7703 340.576 96.1157 337.148 97.559C333.72 99.0023 329.976 99.724 325.917 99.724C320.234 99.724 315.318 98.5513 311.168 96.2059C307.018 93.7703 303.861 90.5679 301.696 86.5988C299.531 82.5395 298.449 78.1645 298.449 73.4737C298.449 68.2417 299.757 63.4156 302.373 58.9955C304.989 54.5753 308.597 51.1023 313.198 48.5765C317.888 45.9605 323.166 44.6525 329.029 44.6525C334.622 44.6525 338.952 45.9154 342.019 48.4412C345.086 50.967 346.619 54.891 346.619 60.2132C346.619 63.0097 346.123 64.4079 345.131 64.4079L312.25 64.5432C312.16 65.1746 312.115 66.212 312.115 67.6553C312.115 75.5936 313.919 81.8179 317.528 86.3282C321.226 90.8386 326.503 93.0937 333.359 93.0937C335.795 93.0937 337.869 92.8231 339.583 92.2819C341.297 91.7406 343.552 90.7484 346.349 89.305L346.619 89.1697ZM323.887 47.3587C320.91 47.3587 318.43 48.6667 316.445 51.2827C314.461 53.8085 313.153 57.3266 312.521 61.837L332.141 61.5664C332.051 56.9658 331.374 53.4477 330.112 51.0121C328.849 48.5765 326.774 47.3587 323.887 47.3587Z" fill="white"/>
<path d="M381.544 99.724C375.591 99.724 370.539 98.4611 366.39 95.9353C362.33 93.3192 359.263 89.9816 357.188 85.9223C355.204 81.7727 354.212 77.4428 354.212 72.9325C354.212 67.2494 355.79 62.288 358.947 58.0483C362.105 53.7183 366.119 50.4258 370.99 48.1706C375.952 45.8252 381.003 44.6525 386.145 44.6525C390.475 44.6525 394.354 45.5546 397.782 47.3587C401.3 49.1629 403.059 51.6436 403.059 54.8008C403.059 56.5148 402.382 58.0032 401.029 59.2661C399.766 60.4388 397.962 61.0251 395.617 61.0251C393.452 61.0251 391.738 60.4839 390.475 59.4014C389.212 58.2287 388.175 56.4697 387.363 54.1243C386.551 51.5985 385.739 49.8845 384.927 48.9825C384.205 47.9902 382.852 47.494 380.868 47.494C376.989 47.494 373.877 49.4335 371.531 53.3124C369.276 57.1011 368.149 62.1527 368.149 68.4672C368.149 75.9544 369.817 81.9532 373.155 86.4635C376.493 90.8837 381.815 93.0937 389.122 93.0937C391.557 93.0937 393.632 92.8231 395.346 92.2819C397.15 91.7406 399.405 90.8386 402.112 89.5757H402.247C402.518 89.5757 402.743 89.711 402.923 89.9816C403.194 90.2522 403.239 90.4777 403.059 90.6582C399.721 93.7252 396.383 96.0255 393.046 97.559C389.708 99.0023 385.874 99.724 381.544 99.724Z" fill="white"/>
<path d="M451.203 88.6285C451.564 88.6285 451.834 88.8089 452.015 89.1697C452.285 89.5306 452.285 89.8012 452.015 89.9816C448.677 93.3193 445.43 95.7999 442.272 97.4237C439.115 98.9572 435.777 99.724 432.259 99.724C428.29 99.724 424.908 98.7768 422.111 96.8824C419.315 94.9881 417.916 91.7857 417.916 87.2754V57.2364C417.916 54.44 417.42 52.5005 416.428 51.4181C415.436 50.3356 413.632 49.7943 411.016 49.7943C410.925 49.7943 410.79 49.659 410.61 49.3884C410.519 49.1178 410.474 48.8472 410.474 48.5765C410.474 48.2157 410.519 47.9451 410.61 47.7647C410.7 47.494 410.835 47.3587 411.016 47.3587C415.616 47.1783 419.315 46.186 422.111 44.3819C424.998 42.5778 427.208 39.8264 428.741 36.1279C428.922 35.7671 429.283 35.5867 429.824 35.5867C430.455 35.5867 430.771 35.7671 430.771 36.1279V46.9528C436.003 46.8626 441.866 46.4567 448.361 45.735C448.542 45.735 448.722 46.0958 448.903 46.8175C449.173 47.4489 449.309 48.1706 449.309 48.9825C449.309 49.8845 449.128 50.7866 448.767 51.6887C448.497 52.5005 448.181 52.8614 447.82 52.7712C441.957 51.5083 436.274 50.8317 430.771 50.7415V82.8101C430.771 86.238 431.628 88.7638 433.342 90.3875C435.146 92.0113 437.491 92.8231 440.378 92.8231C443.986 92.8231 447.504 91.47 450.932 88.7638L451.203 88.6285Z" fill="white"/>
<path d="M505.319 89.1697C505.499 89.1697 505.68 89.3501 505.86 89.711C506.131 90.0718 506.176 90.3424 505.995 90.5228C502.658 93.7703 499.275 96.1157 495.847 97.559C492.419 99.0023 488.675 99.724 484.616 99.724C478.933 99.724 474.017 98.5513 469.867 96.2059C465.718 93.7703 462.561 90.5679 460.396 86.5988C458.231 82.5395 457.148 78.1645 457.148 73.4737C457.148 68.2417 458.456 63.4156 461.072 58.9955C463.688 54.5753 467.296 51.1023 471.897 48.5765C476.588 45.9605 481.865 44.6525 487.728 44.6525C493.321 44.6525 497.651 45.9154 500.718 48.4412C503.785 50.967 505.319 54.891 505.319 60.2132C505.319 63.0097 504.823 64.4079 503.83 64.4079L470.95 64.5432C470.86 65.1746 470.814 66.212 470.814 67.6553C470.814 75.5936 472.619 81.8179 476.227 86.3282C479.925 90.8386 485.203 93.0937 492.058 93.0937C494.494 93.0937 496.569 92.8231 498.283 92.2819C499.997 91.7406 502.252 90.7484 505.048 89.305L505.319 89.1697ZM482.587 47.3587C479.61 47.3587 477.129 48.6667 475.144 51.2827C473.16 53.8085 471.852 57.3266 471.22 61.837L490.84 61.5664C490.75 56.9658 490.074 53.4477 488.811 51.0121C487.548 48.5765 485.473 47.3587 482.587 47.3587Z" fill="white"/>
<path d="M576.642 89.305C576.913 89.305 577.138 89.5306 577.319 89.9816C577.589 90.4326 577.635 90.7032 577.454 90.7935L558.781 99.8593L558.105 99.9946C557.293 99.9946 556.526 99.1376 555.804 97.4237C555.173 95.7097 554.767 93.3644 554.587 90.3875C547.911 96.702 541.101 99.8593 534.155 99.8593C530.186 99.8593 526.577 98.8219 523.33 96.7471C520.173 94.6724 517.647 91.6504 515.752 87.6813C513.858 83.622 512.911 78.8861 512.911 73.4737C512.911 66.618 514.49 61.0251 517.647 56.6952C520.894 52.275 524.863 49.0727 529.554 47.0881C534.335 45.1036 539.116 44.1113 543.897 44.1113C547.235 44.1113 550.753 44.6525 554.451 45.735V18.4022C554.451 15.245 554.136 12.9898 553.504 11.6367C552.963 10.2836 551.971 9.60705 550.527 9.60705C549.355 9.60705 547.686 10.1032 545.521 11.0955H545.385C545.025 11.0955 544.709 10.87 544.438 10.4189C544.258 9.87768 544.258 9.56195 544.438 9.47175L564.329 0.135309L564.87 0C565.321 0 565.817 0.225518 566.359 0.676553C566.9 1.03738 567.17 1.39821 567.17 1.75904V82.4042C567.17 85.4712 567.441 87.6362 567.982 88.8991C568.614 90.162 569.606 90.7935 570.959 90.7935C572.132 90.7935 573.981 90.2973 576.507 89.305H576.642ZM541.597 93.3644C546.107 93.3644 550.392 91.47 554.451 87.6813V87.0048V54.1243C552.828 51.8691 550.978 50.2454 548.904 49.2531C546.919 48.1706 544.574 47.6294 541.867 47.6294C536.996 47.6294 533.253 49.3433 530.637 52.7712C528.111 56.1088 526.848 61.5664 526.848 69.1437C526.848 76.7211 528.201 82.6748 530.907 87.0048C533.613 91.2445 537.177 93.3644 541.597 93.3644Z" fill="white"/>
<path d="M2.43559 136.664C2.43559 136.032 2.4807 135.671 2.5709 135.581C2.75132 135.401 3.11214 135.311 3.65339 135.311H25.3031C25.5737 135.311 25.709 135.581 25.709 136.123C25.709 136.664 25.5737 136.934 25.3031 136.934C22.5067 136.934 20.4319 137.205 19.0788 137.746C17.7257 138.287 16.8236 139.235 16.3726 140.588C15.9216 141.851 15.696 143.835 15.696 146.541V238.011C15.696 240.718 15.9216 242.702 16.3726 243.965C16.8236 245.318 17.7257 246.265 19.0788 246.807C20.4319 247.348 22.5067 247.619 25.3031 247.619C25.5737 247.619 25.709 247.889 25.709 248.43C25.709 248.972 25.5737 249.242 25.3031 249.242H3.65339C3.11214 249.242 2.75132 249.152 2.5709 248.972C2.4807 248.791 2.43559 248.385 2.43559 247.754V136.664Z" fill="white"/>
<path d="M59.728 221.909C59.728 224.796 60.0438 226.916 60.6752 228.269C61.3067 229.532 62.4793 230.434 64.1933 230.975C65.9974 231.517 68.8389 231.787 72.7179 231.787C72.9885 231.787 73.1238 232.058 73.1238 232.599C73.1238 233.14 72.9885 233.411 72.7179 233.411C69.0194 233.411 66.1327 233.366 64.058 233.276L52.2859 233.14L42.4083 233.276C40.6041 233.366 38.1685 233.411 35.1015 233.411C34.8309 233.411 34.6956 233.14 34.6956 232.599C34.6956 232.058 34.8309 231.787 35.1015 231.787C37.9881 231.787 40.0629 231.562 41.3258 231.111C42.6789 230.66 43.581 229.803 44.032 228.54C44.483 227.187 44.7085 225.157 44.7085 222.451V159.802C44.7085 157.096 44.483 155.111 44.032 153.848C43.581 152.585 42.6789 151.728 41.3258 151.277C39.9727 150.736 37.8979 150.465 35.1015 150.465C34.8309 150.465 34.6956 150.195 34.6956 149.654C34.6956 149.112 34.8309 148.842 35.1015 148.842L42.273 148.977C46.4225 149.157 49.715 149.248 52.1506 149.248C54.3156 149.248 56.8865 149.112 59.8633 148.842C61.036 148.752 62.5244 148.661 64.3286 148.571C66.1327 148.481 68.2075 148.436 70.5529 148.436C79.754 148.436 87.0157 150.375 92.3379 154.254C97.6601 158.043 100.321 163.951 100.321 171.98C100.321 177.573 98.8779 182.309 95.9913 186.187C93.1047 190.066 89.3611 192.998 84.7605 194.983C80.2501 196.967 75.6045 197.959 70.8235 197.959C68.3879 197.959 66.268 197.734 64.4639 197.283C64.2835 197.283 64.1933 197.057 64.1933 196.606C64.1933 196.336 64.2384 196.065 64.3286 195.795C64.509 195.524 64.6894 195.434 64.8698 195.524C66.2229 195.885 67.7565 196.065 69.4704 196.065C73.6199 196.065 77.0478 194.126 79.754 190.247C82.5504 186.368 83.9486 180.865 83.9486 173.739C83.9486 166.613 82.4151 161.11 79.3481 157.231C76.3712 153.352 71.9962 151.413 66.2229 151.413C63.6971 151.413 61.9832 151.999 61.0811 153.172C60.1791 154.344 59.728 156.645 59.728 160.073V221.909Z" fill="white"/>
<path d="M110.028 233.411C109.847 233.411 109.757 233.14 109.757 232.599C109.757 232.058 109.847 231.787 110.028 231.787C112.824 231.787 114.718 231.156 115.711 229.893C116.793 228.54 117.334 226.059 117.334 222.451L117.47 153.713C117.47 150.556 117.154 148.3 116.523 146.947C115.981 145.594 114.989 144.918 113.546 144.918C112.373 144.918 110.659 145.414 108.404 146.406H108.269C107.998 146.406 107.727 146.181 107.457 145.73C107.276 145.188 107.276 144.873 107.457 144.782L127.347 135.446L127.889 135.311C128.34 135.311 128.836 135.536 129.377 135.987C129.918 136.348 130.189 136.709 130.189 137.07V222.451C130.189 226.059 130.685 228.54 131.677 229.893C132.67 231.156 134.564 231.787 137.36 231.787C137.721 231.787 137.902 232.058 137.902 232.599C137.902 233.14 137.721 233.411 137.36 233.411C135.105 233.411 133.301 233.366 131.948 233.276L123.694 233.14L115.575 233.276C114.222 233.366 112.373 233.411 110.028 233.411Z" fill="white"/>
<path d="M198.193 226.104C198.554 226.104 198.779 226.33 198.87 226.781C199.05 227.142 198.96 227.412 198.599 227.593L184.662 234.223C184.301 234.403 183.85 234.493 183.309 234.493C181.866 234.493 180.467 233.727 179.114 232.193C177.851 230.66 176.949 228.585 176.408 225.969L170.59 230.028C168.515 231.562 166.576 232.689 164.771 233.411C162.967 234.042 160.938 234.358 158.682 234.358C154.803 234.358 151.872 233.501 149.887 231.787C147.903 230.073 146.91 227.683 146.91 224.616C146.91 222.18 147.497 220.241 148.669 218.797C149.842 217.264 151.285 216.091 152.999 215.279C154.804 214.377 157.284 213.385 160.441 212.302L163.824 211.085L176.002 206.619V198.907C176.002 193.133 175.506 188.939 174.514 186.323C173.612 183.707 172.033 182.399 169.778 182.399C164.997 182.399 162.291 186.097 161.659 193.494C161.389 196.2 160.577 198.14 159.224 199.313C157.961 200.485 156.157 201.072 153.811 201.072C151.556 201.072 149.887 200.621 148.805 199.719C147.812 198.726 147.316 197.463 147.316 195.93C147.316 193.224 148.895 190.653 152.052 188.217C155.209 185.691 158.998 183.662 163.418 182.128C167.929 180.595 171.898 179.828 175.326 179.828C179.295 179.828 182.497 181.091 184.933 183.617C187.458 186.052 188.721 189.796 188.721 194.847V218.797C188.721 221.413 189.172 223.443 190.074 224.886C191.067 226.33 192.42 227.051 194.134 227.051C195.397 227.051 196.705 226.736 198.058 226.104H198.193ZM176.137 223.669C176.047 223.308 176.002 222.721 176.002 221.909V208.92L170.184 211.626C169.913 211.716 169.011 212.077 167.478 212.708C165.944 213.25 164.591 214.197 163.418 215.55C162.336 216.903 161.795 218.482 161.795 220.286C161.795 222.451 162.471 224.165 163.824 225.428C165.268 226.6 166.891 227.187 168.695 227.187C170.139 227.187 171.627 226.69 173.161 225.698L176.137 223.669Z" fill="white"/>
<path d="M230.113 235.035C224.159 235.035 219.107 233.772 214.958 231.246C210.899 228.63 207.832 225.292 205.757 221.233C203.772 217.083 202.78 212.753 202.78 208.243C202.78 202.56 204.359 197.599 207.516 193.359C210.673 189.029 214.687 185.736 219.558 183.481C224.52 181.136 229.571 179.963 234.713 179.963C239.043 179.963 242.922 180.865 246.35 182.669C249.868 184.474 251.627 186.954 251.627 190.111C251.627 191.825 250.951 193.314 249.597 194.577C248.335 195.749 246.53 196.336 244.185 196.336C242.02 196.336 240.306 195.795 239.043 194.712C237.78 193.539 236.743 191.78 235.931 189.435C235.119 186.909 234.307 185.195 233.495 184.293C232.774 183.301 231.421 182.805 229.436 182.805C225.557 182.805 222.445 184.744 220.1 188.623C217.845 192.412 216.717 197.463 216.717 203.778C216.717 211.265 218.386 217.264 221.723 221.774C225.061 226.194 230.383 228.404 237.69 228.404C240.126 228.404 242.2 228.134 243.914 227.593C245.719 227.051 247.974 226.149 250.68 224.886H250.815C251.086 224.886 251.311 225.022 251.492 225.292C251.762 225.563 251.808 225.788 251.627 225.969C248.289 229.036 244.952 231.336 241.614 232.87C238.276 234.313 234.443 235.035 230.113 235.035Z" fill="white"/>
<path d="M307.638 224.48C307.819 224.48 307.999 224.661 308.18 225.022C308.45 225.382 308.495 225.653 308.315 225.833C304.977 229.081 301.594 231.426 298.167 232.87C294.739 234.313 290.995 235.035 286.936 235.035C281.253 235.035 276.336 233.862 272.187 231.517C268.037 229.081 264.88 225.879 262.715 221.909C260.55 217.85 259.468 213.475 259.468 208.784C259.468 203.552 260.776 198.726 263.392 194.306C266.008 189.886 269.616 186.413 274.217 183.887C278.907 181.271 284.184 179.963 290.048 179.963C295.641 179.963 299.971 181.226 303.038 183.752C306.105 186.278 307.638 190.202 307.638 195.524C307.638 198.32 307.142 199.719 306.15 199.719L273.269 199.854C273.179 200.485 273.134 201.523 273.134 202.966C273.134 210.904 274.938 217.129 278.547 221.639C282.245 226.149 287.522 228.404 294.378 228.404C296.813 228.404 298.888 228.134 300.602 227.593C302.316 227.051 304.571 226.059 307.368 224.616L307.638 224.48ZM284.906 182.669C281.929 182.669 279.449 183.977 277.464 186.593C275.479 189.119 274.171 192.637 273.54 197.148L293.16 196.877C293.07 192.276 292.393 188.758 291.13 186.323C289.868 183.887 287.793 182.669 284.906 182.669Z" fill="white"/>
<path d="M327.66 187.676C327.66 190.292 328.562 192.547 330.366 194.441C332.261 196.336 334.967 198.32 338.485 200.395C341.913 202.38 344.439 203.958 346.062 205.131C347.776 206.213 349.31 207.792 350.663 209.867C352.016 211.851 352.693 214.287 352.693 217.174C352.693 220.241 351.926 223.127 350.392 225.833C348.859 228.54 346.558 230.75 343.491 232.464C340.424 234.087 336.771 234.899 332.531 234.899C327.57 234.899 322.879 233.682 318.459 231.246C317.918 230.705 317.647 230.163 317.647 229.622L317.376 216.226C317.376 215.956 317.602 215.821 318.053 215.821C318.594 215.73 318.91 215.775 319 215.956C320.443 220.466 322.834 224.3 326.172 227.457C329.509 230.614 332.892 232.193 336.32 232.193C338.214 232.193 339.703 231.607 340.785 230.434C341.958 229.261 342.544 227.547 342.544 225.292C342.544 221.955 341.597 219.339 339.703 217.444C337.808 215.46 335.012 213.43 331.313 211.355C328.156 209.641 325.766 208.243 324.142 207.161C322.518 206.078 321.075 204.545 319.812 202.56C318.549 200.576 317.918 198.14 317.918 195.253C317.918 189.931 319.812 186.052 323.601 183.617C327.389 181.091 332.035 179.828 337.538 179.828C339.612 179.828 341.462 179.963 343.085 180.234C344.799 180.504 346.694 181.046 348.769 181.858C349.58 182.128 349.986 182.624 349.986 183.346C349.986 185.601 349.941 187.36 349.851 188.623L349.716 195.389C349.716 195.659 349.445 195.795 348.904 195.795C348.363 195.795 348.092 195.659 348.092 195.389C348.092 193.675 347.37 191.825 345.927 189.841C344.484 187.766 342.589 186.007 340.244 184.564C337.989 183.12 335.643 182.399 333.208 182.399C329.509 182.399 327.66 184.158 327.66 187.676Z" fill="white"/>
<path d="M385.291 247.754C385.291 248.385 385.201 248.791 385.02 248.972C384.93 249.152 384.614 249.242 384.073 249.242H362.423C362.153 249.242 362.017 248.972 362.017 248.43C362.017 247.889 362.153 247.619 362.423 247.619C365.22 247.619 367.294 247.348 368.648 246.807C370.001 246.265 370.903 245.318 371.354 243.965C371.805 242.702 372.03 240.718 372.03 238.011V146.541C372.03 143.835 371.805 141.851 371.354 140.588C370.903 139.235 370.001 138.287 368.648 137.746C367.294 137.205 365.22 136.934 362.423 136.934C362.153 136.934 362.017 136.664 362.017 136.123C362.017 135.581 362.153 135.311 362.423 135.311H384.073C384.614 135.311 384.93 135.401 385.02 135.581C385.201 135.671 385.291 136.032 385.291 136.664V247.754Z" fill="white"/>
</svg>
