<svg width="106" height="175" viewBox="0 0 106 175" fill="none" xmlns="http://www.w3.org/2000/svg">
<path d="M82.1202 76.3175C82.1202 53.6912 63.737 0 41.0601 0C18.3832 0 0 53.6912 0 76.3175C0.0060163 87.1864 4.33463 97.6082 12.0342 105.292C19.7339 112.975 30.1742 117.291 41.0601 117.291C51.946 117.291 62.3864 112.975 70.086 105.292C77.7856 97.6082 82.1142 87.1864 82.1202 76.3175Z" fill="#1F7231"/>
<path d="M41.0603 173.413C41.1195 173.413 41.1781 173.402 41.2328 173.379C41.2875 173.357 41.3372 173.323 41.3791 173.282C41.4209 173.24 41.4542 173.19 41.4768 173.136C41.4995 173.081 41.5112 173.023 41.5112 172.963V15.0044C41.5108 14.8853 41.463 14.7713 41.3785 14.6872C41.294 14.6031 41.1796 14.5559 41.0603 14.5559C40.941 14.5559 40.8265 14.6031 40.742 14.6872C40.6575 14.7713 40.6098 14.8853 40.6094 15.0044V172.963C40.6094 173.023 40.6211 173.081 40.6437 173.136C40.6664 173.19 40.6996 173.24 40.7415 173.282C40.7834 173.323 40.8331 173.357 40.8878 173.379C40.9425 173.402 41.0011 173.413 41.0603 173.413Z" fill="#30260C"/>
<path d="M41.0602 50.7962C41.1194 50.7962 41.1781 50.7847 41.2328 50.762C41.2875 50.7394 41.3372 50.7062 41.379 50.6644L63.0834 29.0085C63.1679 28.9241 63.2153 28.8096 63.2153 28.6902C63.2152 28.5709 63.1677 28.4564 63.0831 28.372C62.9986 28.2877 62.8839 28.2403 62.7643 28.2404C62.6448 28.2404 62.5302 28.2879 62.4457 28.3723L40.7413 50.0282C40.6783 50.0911 40.6354 50.1713 40.618 50.2586C40.6006 50.3459 40.6096 50.4363 40.6437 50.5185C40.6779 50.6008 40.7356 50.671 40.8098 50.7204C40.8839 50.7699 40.971 50.7962 41.0602 50.7962Z" fill="#30260C"/>
<path d="M41.0599 88.2867C41.1491 88.2868 41.2362 88.2604 41.3103 88.211C41.3845 88.1616 41.4423 88.0913 41.4764 88.0091C41.5105 87.9269 41.5195 87.8364 41.5021 87.7491C41.4847 87.6619 41.4418 87.5817 41.3788 87.5188L14.4371 61.2694C14.3526 61.185 14.238 61.1375 14.1184 61.1375C13.9989 61.1374 13.8842 61.1848 13.7996 61.2691C13.7151 61.3535 13.6675 61.4679 13.6675 61.5873C13.6674 61.7067 13.7149 61.8212 13.7994 61.9056L40.7411 88.1549C40.7829 88.1968 40.8326 88.23 40.8873 88.2526C40.9421 88.2752 41.0007 88.2868 41.0599 88.2867Z" fill="#30260C"/>
<path d="M106 119.245C106 106.128 95.2548 75 82 75C68.7452 75 58 106.128 58 119.245C58.0035 125.547 60.5336 131.589 65.0341 136.043C69.5346 140.498 75.6371 143 82 143C88.3629 143 94.4654 140.498 98.9659 136.043C103.466 131.589 105.996 125.547 106 119.245Z" fill="#9BE7AC"/>
<path d="M82.375 175C82.4242 175 82.473 174.993 82.5185 174.98C82.564 174.967 82.6053 174.948 82.6401 174.924C82.6749 174.9 82.7026 174.871 82.7214 174.839C82.7403 174.808 82.75 174.774 82.75 174.739V83.2598C82.7496 83.1908 82.7099 83.1247 82.6397 83.076C82.5694 83.0273 82.4742 83 82.375 83C82.2758 83 82.1806 83.0273 82.1103 83.076C82.04 83.1247 82.0004 83.1908 82 83.2598V174.739C82 174.774 82.0097 174.808 82.0286 174.839C82.0474 174.871 82.0751 174.9 82.1099 174.924C82.1447 174.948 82.186 174.967 82.2315 174.98C82.277 174.993 82.3258 175 82.375 175Z" fill="#30260C"/>
<path d="M82.2592 104C82.2933 104 82.327 103.993 82.3585 103.98C82.39 103.967 82.4186 103.948 82.4426 103.924L94.9242 91.4427C94.9727 91.3941 95 91.3281 95 91.2593C95 91.1905 94.9726 91.1245 94.924 91.0759C94.8754 91.0273 94.8094 91 94.7407 91C94.6719 91 94.606 91.0274 94.5574 91.0761L82.0759 103.557C82.0396 103.594 82.015 103.64 82.005 103.69C81.995 103.74 82.0001 103.793 82.0197 103.84C82.0394 103.887 82.0726 103.928 82.1152 103.956C82.1579 103.985 82.208 104 82.2592 104Z" fill="#30260C"/>
<path d="M81.7409 126C81.7922 126 81.8422 125.984 81.8848 125.955C81.9274 125.926 81.9606 125.885 81.9803 125.836C81.9999 125.788 82.005 125.735 81.995 125.683C81.9851 125.632 81.9604 125.584 81.9242 125.547L66.4423 110.078C66.3937 110.028 66.3278 110 66.2591 110C66.1904 110 66.1245 110.028 66.0759 110.078C66.0273 110.127 66 110.195 66 110.265C66 110.335 66.0272 110.403 66.0758 110.453L81.5577 125.922C81.5818 125.947 81.6103 125.967 81.6418 125.98C81.6732 125.993 81.7069 126 81.7409 126Z" fill="#30260C"/>
</svg>